<?xml version="1.0" encoding="utf-8"?>
<!-- Generator: Adobe Illustrator 24.2.0, SVG Export Plug-In . SVG Version: 6.00 Build 0)  -->
<svg version="1.1" id="Layer_1" xmlns="http://www.w3.org/2000/svg" xmlns:xlink="http://www.w3.org/1999/xlink" x="0px" y="0px"
	 viewBox="0 0 700 535.5" style="enable-background:new 0 0 700 535.5;" xml:space="preserve">
<style type="text/css">
	.st0{fill:none;stroke:#DB7D6A;stroke-width:4;stroke-miterlimit:10;}
	.st1{fill:#DB7A4E;}
	.st2{fill:#736458;}
	.st3{fill:#57473C;}
	.st4{fill:#A94B26;}
	.st5{fill:#2B2222;}
	.st6{fill:#FAB188;}
	.st7{fill:#AD7F5D;}
	.st8{fill:#B2E0E5;}
	.st9{fill:#F68D66;}
	.st10{fill:#693827;}
	.st11{fill:#FBBEA0;}
	.st12{display:none;}
	.st13{display:inline;}
	.st14{fill:#5E2E1F;}
	.st15{display:inline;fill:#FFFFFF;}
	.st16{fill:#6BC3D1;}
	.st17{fill:#3CC1CD;}
	.st18{fill:#171717;}
	.st19{fill:#110E0F;}
	.st20{fill:#F89723;}
	.st21{fill:#53C3BE;}
	.st22{fill:#229E90;}
	.st23{fill:#FFFFFF;}
	.st24{fill:#B4B4B4;}
	.st25{fill:#7B445A;}
	.st26{fill:#572A3C;}
	.st27{fill:#E6E6E5;}
	.st28{fill:#E1662D;}
	.st29{fill:#B54926;}
	.st30{fill:#ECE9DF;}
	.st31{fill:#424E55;}
	.st32{fill:#F26560;}
	.st33{opacity:0.7;}
	.st34{fill:#304891;}
	.st35{fill:#F1F4FA;}
	.st36{fill:#2C3A79;}
	.st37{fill:#3B60AD;}
	.st38{display:inline;fill:#FAB188;}
	.st39{display:inline;fill:#2E4389;}
	.st40{display:inline;fill:#5D8FCB;}
	.st41{display:inline;fill:#304891;}
	.st42{display:inline;fill:#2B3774;}
	.st43{display:inline;fill:#282E64;}
	.st44{fill:#D87E27;}
	.st45{fill:#C4D6EF;}
	.st46{fill:#EDF1FA;}
	.st47{fill:#2E4389;}
	.st48{fill:#1F1C1E;}
	.st49{fill:#333435;}
	.st50{fill:#FFDD70;}
	.st51{fill:#CAEBFC;}
	.st52{fill:#F175A9;}
	.st53{fill:#945077;}
	.st54{fill:#E9E9EA;}
	.st55{fill:#E2DED5;}
	.st56{opacity:0.8;}
	.st57{opacity:0.15;fill:#BB7458;enable-background:new    ;}
	.st58{fill:#FDDDD4;}
	.st59{fill:#FFFCF8;}
	.st60{fill:#020202;}
	.st61{fill:#F5F6F6;}
	.st62{fill:#273238;}
	.st63{fill:#E7525C;}
	.st64{fill:#263238;}
	.st65{fill:#455B64;}
	.st66{fill:#E0E0E0;}
	.st67{fill:#FAFBFB;}
	.st68{fill:#E7515B;}
	.st69{fill:#FFFFFF;stroke:#263238;stroke-width:2;stroke-miterlimit:10;}
	.st70{fill:#C2E8FB;}
	.st71{fill:#2A9CBF;}
	.st72{fill:#65B285;}
	.st73{fill:#E2E2E2;}
	.st74{fill:none;stroke:#FFFFFF;stroke-width:5;stroke-linecap:round;stroke-miterlimit:10;}
	.st75{fill:#997C67;}
	.st76{fill:#E4E5E4;}
	.st77{fill:#A48574;}
	.st78{opacity:0.08;fill:#010101;}
	.st79{fill:#F1F0F0;}
	.st80{fill:#2D2D2C;}
	.st81{fill:#BBC7AA;}
	.st82{fill:#CBCACA;}
	.st83{fill:#9FC4AA;}
	.st84{fill:#343433;}
	.st85{fill:#C6B098;}
	.st86{opacity:0.07;fill:#010101;}
	.st87{opacity:0.16;}
	.st88{fill:#518AB0;}
	.st89{fill:#FFDF8A;}
	.st90{fill:none;stroke:#F47421;stroke-width:4;stroke-miterlimit:10;}
	.st91{fill:none;stroke:#F47421;stroke-width:4;stroke-miterlimit:10;stroke-dasharray:12.2717,12.2717;}
	.st92{fill:#F47421;}
	.st93{fill:#E7F6FD;}
	.st94{fill:none;stroke:#DB7D6A;stroke-width:4;stroke-linecap:round;stroke-miterlimit:10;}
	.st95{fill:#F4F4F5;}
	.st96{fill:#BFBFBF;}
	.st97{fill:#7F7F7F;}
	.st98{fill:none;stroke:#E2E2E2;stroke-miterlimit:10;}
	.st99{fill:#FEC77E;}
	.st100{fill:none;stroke:#FEC77E;stroke-width:0.75;stroke-miterlimit:10;}
	.st101{fill:#19151F;}
	.st102{fill:#F5B690;}
	.st103{opacity:0.401;enable-background:new    ;}
	.st104{fill:#262466;}
	.st105{fill:#937EBB;}
	.st106{opacity:0.398;fill:#0D0D11;enable-background:new    ;}
	.st107{fill:#C83A27;}
	.st108{opacity:0.201;fill:none;stroke:#000000;stroke-width:3;stroke-miterlimit:10;enable-background:new    ;}
	.st109{fill:#18181C;}
	.st110{fill:#FCD6CC;}
	.st111{opacity:0.03;fill:none;stroke:#000000;stroke-width:3;stroke-miterlimit:10;enable-background:new    ;}
	.st112{opacity:0.2;fill:none;stroke:#000000;stroke-width:3;stroke-miterlimit:10;enable-background:new    ;}
	.st113{opacity:0.3;}
	.st114{fill:#455B65;}
	.st115{fill:#55C2B1;}
	.st116{fill:#F1F1F1;}
	.st117{fill:#E7E7E6;}
	.st118{fill:#E1E1E1;}
	.st119{fill:#EBEBEB;}
	.st120{opacity:0.5;fill:#E1E1E1;}
	.st121{opacity:0.2;}
	.st122{opacity:0.4;}
	.st123{opacity:0.1;}
	.st124{display:none;opacity:0.5;fill:#140E42;}
	.st125{fill:#33308E;}
	.st126{opacity:0.8;fill:url(#SVGID_1_);}
	.st127{fill:url(#SVGID_2_);}
	.st128{opacity:0.7;fill:url(#SVGID_3_);}
	.st129{opacity:0.5;fill:url(#SVGID_4_);}
	.st130{opacity:0.7;fill:url(#SVGID_5_);}
	.st131{fill:url(#SVGID_6_);}
	.st132{fill:#2B464F;}
	.st133{fill:url(#SVGID_7_);}
	.st134{fill:#6DCACE;}
	.st135{fill:#3A616C;}
	.st136{opacity:0.2;fill:#FCCC6D;}
	.st137{opacity:0.6;fill:#FCCC6D;}
	.st138{fill:#FCCC6D;}
	.st139{display:inline;opacity:0.2;}
	.st140{fill:#9ED9DC;}
	.st141{fill:#2ABFEB;}
	.st142{fill:#010101;}
	.st143{fill:#86D1D7;}
	.st144{opacity:0.5;fill:#9ED9DC;}
	.st145{display:inline;opacity:0.5;fill:#9ED9DC;}
	.st146{display:inline;fill:#9ED9DC;}
	.st147{opacity:0.5;fill:#455B65;}
	.st148{opacity:0.5;fill:#263238;}
	.st149{fill:#F5F6F6;stroke:#010101;stroke-width:0.5;stroke-miterlimit:10;}
	.st150{opacity:0.15;}
</style>
<g>
	<g id="XMLID_1552_">
		<path id="XMLID_12733_" class="st23" d="M228.92,353.8l0.02,15.1c0.01,3.35-1.5,6.07-3.37,6.08l0,0l-141.22,0.21
			c-1.86,0-3.38-2.71-3.39-6.07L80.76,229.2c-0.01-3.35,1.5-6.07,3.37-6.08l0,0l141.22-0.21c1.86,0,3.38,2.71,3.39,6.07l0,0
			L228.92,353.8L228.92,353.8L228.92,353.8z"/>
		<path id="XMLID_12732_" class="st20" d="M228.94,368.9c0.01,3.35-1.5,6.07-3.37,6.08l0,0l-141.22,0.21
			c-1.86,0-3.38-2.71-3.39-6.07l-0.21-139.94c-0.01-3.35,1.5-6.07,3.37-6.08l0,0l141.22-0.21c1.86,0,3.38,2.71,3.39,6.07l0,0
			L228.94,368.9L228.94,368.9z"/>
		<g id="XMLID_12730_">
			<path id="XMLID_12731_" class="st20" d="M229.21,369.43c0.01,3.35-1.5,6.07-3.37,6.08l0,0l-141.22,0.21
				c-1.86,0-3.38-2.71-3.39-6.07l144.37-146.23c1.86,0,3.38,2.71,3.39,6.07l0,0L229.21,369.43L229.21,369.43z"/>
		</g>
		<path id="XMLID_1706_" class="st57" d="M198.23,257.04l-98.94,0.15c-1.96,0-3.55-1.58-3.55-3.54l-0.02-15.66
			c0-1.96,1.58-3.55,3.54-3.55l98.94-0.15c1.96,0,3.55,1.58,3.55,3.54l0.02,15.66C201.77,255.45,200.19,257.03,198.23,257.04z"/>
		<path id="XMLID_1705_" class="st58" d="M197.56,254.99l-98.94,0.15c-1.96,0-3.55-1.58-3.55-3.54l-0.02-15.66
			c0-1.96,1.58-3.55,3.54-3.55l98.94-0.15c1.96,0,3.55,1.58,3.55,3.54l0.02,15.66C201.11,253.39,199.52,254.99,197.56,254.99z"/>
		<g id="XMLID_1549_">
			<path id="XMLID_1723_" class="st57" d="M207.1,296.82l-108.81,0.16c-1.96,0-3.55-1.58-3.55-3.54l-0.02-14.63
				c0-1.96,1.58-3.55,3.54-3.55l108.81-0.16c1.96,0,3.55,1.58,3.55,3.54l0.02,14.63C210.64,295.23,209.06,296.82,207.1,296.82z"/>
			<path id="XMLID_1722_" class="st59" d="M206.37,294.86l-108.81,0.16c-1.96,0-3.55-1.58-3.55-3.54l-0.02-14.63
				c0-1.96,1.58-3.55,3.54-3.55l108.81-0.16c1.96,0,3.55,1.58,3.55,3.54l0.02,14.63C209.91,293.27,208.33,294.86,206.37,294.86z"/>
			<path id="XMLID_1721_" class="st57" d="M207.29,324.92l-108.81,0.16c-1.96,0-3.55-1.58-3.55-3.54l-0.02-14.63
				c0-1.96,1.58-3.55,3.54-3.55l108.81-0.16c1.96,0,3.55,1.58,3.55,3.54l0.02,14.63C210.84,323.33,209.25,324.92,207.29,324.92z"/>
			<path id="XMLID_1720_" class="st59" d="M206.56,322.97l-108.81,0.16c-1.96,0-3.55-1.58-3.55-3.54l-0.02-14.63
				c0-1.96,1.58-3.55,3.54-3.55l108.81-0.16c1.96,0,3.55,1.58,3.55,3.54l0.02,14.63C210.11,321.37,208.52,322.97,206.56,322.97z"/>
			<path id="XMLID_1719_" class="st57" d="M207.19,353.53L98.38,353.7c-1.96,0-3.55-1.58-3.55-3.54l-0.02-14.63
				c0-1.96,1.58-3.55,3.54-3.55l108.81-0.16c1.96,0,3.55,1.58,3.55,3.54l0.02,14.63C210.74,351.94,209.15,353.53,207.19,353.53z"/>
			<path id="XMLID_1718_" class="st59" d="M206.46,351.58l-108.81,0.16c-1.96,0-3.55-1.58-3.55-3.54l-0.02-14.63
				c0-1.96,1.58-3.55,3.54-3.55l108.81-0.16c1.96,0,3.55,1.58,3.55,3.54l0.02,14.63C210.01,349.98,208.42,351.58,206.46,351.58z"/>
			<g id="XMLID_1666_">
				<path id="XMLID_1676_" class="st60" d="M105.52,286.6l-2.58,0l-0.52,1.54l-1.11,0l2.41-6.59l1.04,0l2.4,6.58l-1.12,0
					L105.52,286.6z M103.26,285.69l1.95,0l-0.96-2.81l-0.03,0L103.26,285.69z"/>
				<path id="XMLID_1675_" class="st60" d="M109.81,287.35c0.27,0,0.5-0.08,0.68-0.24c0.18-0.16,0.27-0.35,0.27-0.59l1,0l0.01,0.03
					c0.02,0.46-0.17,0.85-0.55,1.18c-0.38,0.33-0.85,0.5-1.4,0.5c-0.72,0-1.27-0.23-1.66-0.7c-0.39-0.46-0.58-1.05-0.58-1.76l0-0.16
					c0-0.71,0.19-1.29,0.58-1.76s0.93-0.7,1.66-0.7c0.59,0,1.07,0.17,1.43,0.51c0.36,0.34,0.55,0.78,0.54,1.3l-0.01,0.03l-1,0
					c0-0.27-0.09-0.5-0.27-0.68c-0.18-0.19-0.41-0.28-0.69-0.28c-0.41,0-0.7,0.15-0.87,0.45c-0.17,0.3-0.26,0.68-0.26,1.13l0,0.16
					c0,0.46,0.09,0.84,0.26,1.13C109.1,287.2,109.4,287.35,109.81,287.35z"/>
				<path id="XMLID_1674_" class="st60" d="M114.68,287.34c0.27,0,0.5-0.08,0.68-0.24c0.18-0.16,0.27-0.35,0.27-0.59l1,0l0.01,0.03
					c0.02,0.46-0.17,0.85-0.55,1.18s-0.85,0.5-1.4,0.5c-0.72,0-1.27-0.23-1.66-0.7c-0.39-0.46-0.58-1.05-0.58-1.76l0-0.16
					c0-0.71,0.19-1.29,0.58-1.76c0.38-0.47,0.93-0.7,1.66-0.7c0.59,0,1.07,0.17,1.43,0.51c0.36,0.34,0.55,0.78,0.54,1.3l-0.01,0.03
					l-1,0c0-0.27-0.09-0.5-0.27-0.68c-0.18-0.19-0.41-0.28-0.69-0.28c-0.41,0-0.7,0.15-0.87,0.45c-0.17,0.3-0.26,0.68-0.26,1.13
					l0,0.16c0,0.46,0.09,0.84,0.26,1.13C113.97,287.19,114.26,287.34,114.68,287.34z"/>
				<path id="XMLID_1671_" class="st60" d="M117.31,285.63c0-0.73,0.2-1.32,0.59-1.79c0.4-0.47,0.95-0.7,1.64-0.7
					c0.7,0,1.26,0.23,1.65,0.7c0.4,0.46,0.6,1.06,0.6,1.79l0,0.09c0,0.74-0.2,1.34-0.6,1.8c-0.4,0.46-0.95,0.7-1.64,0.7
					c-0.7,0-1.25-0.23-1.65-0.7c-0.4-0.46-0.6-1.06-0.6-1.79L117.31,285.63z M118.41,285.72c0,0.47,0.09,0.86,0.28,1.17
					c0.18,0.3,0.47,0.45,0.87,0.44c0.39,0,0.67-0.15,0.86-0.45c0.19-0.3,0.29-0.69,0.29-1.17l0-0.09c0-0.47-0.1-0.85-0.29-1.15
					c-0.19-0.3-0.48-0.46-0.87-0.46c-0.39,0-0.67,0.16-0.86,0.46c-0.19,0.3-0.28,0.69-0.28,1.15L118.41,285.72z"/>
				<path id="XMLID_1670_" class="st60" d="M125.81,287.39c-0.15,0.26-0.35,0.46-0.58,0.6c-0.24,0.14-0.51,0.21-0.81,0.21
					c-0.52,0-0.94-0.16-1.23-0.5c-0.3-0.34-0.45-0.85-0.45-1.56l0-2.93l1.1,0l0,2.93c0,0.43,0.07,0.73,0.21,0.9
					c0.14,0.17,0.35,0.26,0.63,0.26c0.26,0,0.49-0.05,0.67-0.14c0.18-0.09,0.32-0.23,0.42-0.41l-0.01-3.54l1.1,0l0.01,4.89l-0.96,0
					L125.81,287.39z"/>
				<path id="XMLID_1669_" class="st60" d="M129,283.21l0.07,0.7c0.16-0.25,0.36-0.45,0.6-0.58c0.24-0.14,0.52-0.21,0.82-0.21
					c0.51,0,0.91,0.15,1.2,0.46c0.29,0.31,0.43,0.79,0.43,1.45l0,3.08l-1.1,0l0-3.07c0-0.37-0.08-0.63-0.23-0.79
					c-0.15-0.15-0.39-0.23-0.69-0.23c-0.21,0-0.41,0.05-0.57,0.14c-0.17,0.09-0.31,0.23-0.42,0.39l0.01,3.55l-1.1,0l-0.01-4.89
					L129,283.21L129,283.21z"/>
				<path id="XMLID_1668_" class="st60" d="M134.62,282.01l0,1.19l0.88,0l0,0.81l-0.88,0l0,2.7c0,0.2,0.04,0.35,0.13,0.43
					c0.09,0.09,0.2,0.13,0.35,0.13c0.06,0,0.12-0.01,0.18-0.02c0.06-0.01,0.11-0.03,0.17-0.04l0.12,0.8
					c-0.09,0.05-0.2,0.09-0.34,0.12s-0.26,0.04-0.4,0.04c-0.4,0-0.72-0.11-0.95-0.36c-0.23-0.24-0.34-0.61-0.34-1.12l0-2.7l-0.75,0
					l0-0.81l0.75,0l0-1.19l1.1,0L134.62,282.01z"/>
				<path id="XMLID_1667_" class="st60" d="M139.23,286.76c0-0.17-0.07-0.31-0.22-0.42s-0.41-0.21-0.81-0.29
					c-0.58-0.12-1.03-0.3-1.33-0.53c-0.3-0.23-0.45-0.54-0.45-0.93c0-0.41,0.17-0.76,0.52-1.05c0.35-0.29,0.8-0.44,1.37-0.44
					c0.59,0,1.07,0.15,1.42,0.44c0.35,0.29,0.52,0.66,0.51,1.09l-0.01,0.03l-1.05,0c0-0.2-0.08-0.37-0.23-0.52
					c-0.15-0.14-0.36-0.21-0.63-0.21c-0.26,0-0.47,0.06-0.61,0.18c-0.14,0.12-0.21,0.26-0.21,0.44c0,0.17,0.07,0.31,0.2,0.41
					s0.4,0.19,0.8,0.27c0.62,0.13,1.07,0.3,1.37,0.53c0.3,0.23,0.45,0.54,0.45,0.94c0,0.44-0.18,0.8-0.54,1.07s-0.84,0.41-1.44,0.42
					c-0.64,0-1.14-0.16-1.51-0.49s-0.55-0.7-0.52-1.12l0.01-0.03l1.02,0c0.01,0.29,0.12,0.49,0.31,0.62
					c0.19,0.13,0.43,0.19,0.71,0.19c0.29,0,0.5-0.06,0.65-0.17C139.15,287.09,139.23,286.94,139.23,286.76z"/>
			</g>
			<g id="XMLID_1653_">
				<path id="XMLID_1665_" class="st60" d="M105.52,314.49l0.01,0.03c0.01,0.67-0.2,1.21-0.65,1.63c-0.45,0.41-1.05,0.63-1.8,0.63
					c-0.77,0-1.39-0.26-1.88-0.77c-0.48-0.52-0.72-1.18-0.72-1.98l0-1.26c0-0.8,0.23-1.46,0.71-1.98c0.47-0.52,1.09-0.78,1.85-0.78
					c0.78,0,1.39,0.2,1.84,0.61s0.67,0.96,0.66,1.65l-0.01,0.03l-1.06,0c0-0.45-0.12-0.79-0.36-1.03c-0.24-0.25-0.6-0.37-1.06-0.37
					c-0.45,0-0.8,0.18-1.07,0.54c-0.26,0.36-0.4,0.8-0.39,1.34l0,1.26c0,0.55,0.14,0.99,0.41,1.35c0.27,0.36,0.63,0.53,1.09,0.53
					c0.46,0,0.8-0.12,1.03-0.36c0.24-0.24,0.35-0.59,0.35-1.04L105.52,314.49L105.52,314.49z"/>
				<path id="XMLID_1662_" class="st60" d="M106.26,314.18c0-0.73,0.2-1.32,0.59-1.79c0.4-0.47,0.95-0.7,1.64-0.7
					c0.7,0,1.26,0.23,1.65,0.7c0.4,0.46,0.6,1.06,0.6,1.79l0,0.09c0,0.74-0.2,1.34-0.6,1.8c-0.4,0.46-0.95,0.7-1.64,0.7
					c-0.7,0-1.25-0.23-1.65-0.7c-0.4-0.46-0.6-1.06-0.6-1.79L106.26,314.18z M107.36,314.27c0,0.47,0.09,0.86,0.28,1.17
					c0.18,0.3,0.47,0.45,0.87,0.44c0.39,0,0.67-0.15,0.86-0.45c0.19-0.3,0.29-0.69,0.29-1.17l0-0.09c0-0.47-0.1-0.85-0.29-1.15
					c-0.19-0.3-0.48-0.46-0.87-0.46c-0.39,0-0.67,0.16-0.86,0.46c-0.19,0.3-0.28,0.69-0.28,1.15L107.36,314.27z"/>
				<path id="XMLID_1661_" class="st60" d="M112.7,311.76l0.07,0.7c0.16-0.25,0.36-0.45,0.6-0.58c0.24-0.14,0.52-0.21,0.82-0.21
					c0.51,0,0.91,0.15,1.2,0.46c0.29,0.31,0.43,0.79,0.43,1.45l0,3.08l-1.1,0l0-3.07c0-0.37-0.08-0.63-0.23-0.79
					c-0.15-0.15-0.39-0.23-0.69-0.23c-0.21,0-0.41,0.05-0.57,0.14c-0.17,0.09-0.31,0.23-0.42,0.39l0.01,3.55l-1.1,0l-0.01-4.89
					L112.7,311.76L112.7,311.76z"/>
				<path id="XMLID_1660_" class="st60" d="M118.32,310.56l0,1.19l0.88,0l0,0.81l-0.88,0l0,2.7c0,0.2,0.04,0.35,0.13,0.43
					c0.09,0.09,0.2,0.13,0.35,0.13c0.06,0,0.12-0.01,0.18-0.02s0.11-0.03,0.17-0.04l0.12,0.8c-0.09,0.05-0.2,0.09-0.34,0.12
					c-0.13,0.03-0.26,0.04-0.4,0.04c-0.4,0-0.72-0.11-0.95-0.36c-0.23-0.24-0.34-0.61-0.34-1.12l0-2.7l-0.75,0l0-0.81l0.75,0l0-1.19
					l1.1,0L118.32,310.56z"/>
				<path id="XMLID_1657_" class="st60" d="M123.13,316.64c-0.04-0.12-0.07-0.24-0.1-0.36c-0.03-0.12-0.04-0.24-0.05-0.35
					c-0.15,0.23-0.35,0.42-0.59,0.58s-0.52,0.23-0.83,0.23c-0.51,0-0.9-0.13-1.17-0.39c-0.28-0.26-0.41-0.62-0.41-1.08
					c0-0.47,0.19-0.84,0.56-1.11s0.9-0.4,1.58-0.4l0.85,0l0-0.43c0-0.26-0.08-0.46-0.23-0.6c-0.15-0.14-0.37-0.21-0.64-0.21
					c-0.25,0-0.45,0.06-0.59,0.18s-0.22,0.28-0.22,0.47l-1.06,0l-0.01-0.03c-0.02-0.39,0.15-0.73,0.52-1.03
					c0.36-0.3,0.84-0.45,1.43-0.45c0.57,0,1.03,0.14,1.38,0.43s0.52,0.7,0.52,1.25l0,2.17c0,0.2,0.01,0.4,0.04,0.58
					c0.03,0.19,0.07,0.37,0.13,0.54l-1.12,0L123.13,316.64z M121.78,315.86c0.28,0,0.53-0.07,0.75-0.21s0.37-0.3,0.44-0.47l0-0.72
					l-0.88,0c-0.32,0-0.57,0.08-0.75,0.24c-0.18,0.16-0.27,0.35-0.27,0.56c0,0.19,0.06,0.34,0.18,0.45
					C121.38,315.8,121.55,315.86,121.78,315.86z"/>
				<path id="XMLID_1656_" class="st60" d="M127.24,315.85c0.27,0,0.5-0.08,0.68-0.24c0.18-0.16,0.27-0.35,0.27-0.59l1,0l0.01,0.03
					c0.02,0.46-0.17,0.85-0.55,1.18c-0.38,0.33-0.85,0.5-1.4,0.5c-0.72,0-1.27-0.23-1.66-0.7c-0.39-0.46-0.58-1.05-0.58-1.76l0-0.16
					c0-0.71,0.19-1.29,0.58-1.76s0.93-0.7,1.66-0.7c0.59,0,1.07,0.17,1.43,0.51s0.55,0.78,0.54,1.3l-0.01,0.03l-1,0
					c0-0.27-0.09-0.5-0.27-0.68c-0.18-0.19-0.41-0.28-0.69-0.28c-0.41,0-0.7,0.15-0.87,0.45c-0.17,0.3-0.26,0.68-0.26,1.13l0,0.16
					c0,0.46,0.09,0.84,0.26,1.13C126.54,315.7,126.83,315.85,127.24,315.85z"/>
				<path id="XMLID_1655_" class="st60" d="M131.44,310.54l0,1.19l0.88,0l0,0.81l-0.88,0l0,2.7c0,0.2,0.04,0.35,0.13,0.43
					c0.09,0.09,0.2,0.13,0.35,0.13c0.06,0,0.12-0.01,0.18-0.02c0.06-0.01,0.11-0.03,0.17-0.04l0.12,0.8
					c-0.09,0.05-0.2,0.09-0.34,0.12c-0.13,0.03-0.26,0.04-0.4,0.04c-0.4,0-0.72-0.11-0.95-0.36c-0.23-0.24-0.34-0.61-0.34-1.12
					l0-2.7l-0.75,0l0-0.81l0.75,0l0-1.19l1.1,0L131.44,310.54z"/>
				<path id="XMLID_1654_" class="st60" d="M136.06,315.29c0-0.17-0.07-0.31-0.22-0.42s-0.41-0.21-0.81-0.29
					c-0.58-0.12-1.03-0.3-1.33-0.53c-0.3-0.23-0.45-0.54-0.45-0.93c0-0.41,0.17-0.76,0.52-1.05c0.35-0.29,0.8-0.44,1.37-0.44
					c0.59,0,1.07,0.15,1.42,0.44c0.35,0.29,0.52,0.66,0.51,1.09l-0.01,0.03l-1.05,0c0-0.2-0.08-0.37-0.23-0.52
					c-0.15-0.14-0.36-0.21-0.63-0.21c-0.26,0-0.47,0.06-0.61,0.18c-0.14,0.12-0.21,0.26-0.21,0.44s0.07,0.31,0.2,0.41
					c0.13,0.1,0.4,0.19,0.8,0.27c0.62,0.13,1.07,0.3,1.37,0.53c0.3,0.23,0.45,0.54,0.45,0.94c0,0.44-0.18,0.8-0.54,1.07
					c-0.36,0.28-0.84,0.41-1.44,0.42c-0.64,0-1.14-0.16-1.51-0.49s-0.55-0.7-0.52-1.12l0.01-0.03l1.02,0
					c0.01,0.29,0.12,0.49,0.31,0.62c0.19,0.13,0.43,0.19,0.71,0.19c0.29,0,0.5-0.06,0.65-0.17
					C135.98,315.62,136.06,315.47,136.06,315.29z"/>
			</g>
			<g id="XMLID_1641_">
				<path id="XMLID_1652_" class="st60" d="M102.52,344.22l3.03,0l0,0.88l-4.12,0.01l-0.01-6.58l1.1,0L102.52,344.22L102.52,344.22z
					"/>
				<path id="XMLID_1649_" class="st60" d="M108.4,345.19c-0.69,0-1.24-0.22-1.66-0.68c-0.41-0.45-0.62-1.03-0.62-1.75l0-0.18
					c0-0.71,0.2-1.3,0.61-1.77c0.41-0.47,0.92-0.7,1.54-0.7c0.66,0,1.17,0.2,1.52,0.6c0.35,0.4,0.53,0.94,0.53,1.61l0,0.65l-3.06,0
					l-0.01,0.02c0.02,0.39,0.13,0.7,0.34,0.95s0.5,0.37,0.87,0.37c0.3,0,0.55-0.04,0.76-0.11c0.21-0.07,0.41-0.18,0.61-0.31
					l0.35,0.72c-0.18,0.17-0.43,0.3-0.73,0.41C109.15,345.12,108.8,345.19,108.4,345.19z M108.27,340.99c-0.27,0-0.5,0.11-0.67,0.33
					c-0.18,0.21-0.29,0.49-0.32,0.82l0.01,0.02l1.94,0l0-0.12c0-0.31-0.08-0.56-0.24-0.76
					C108.82,341.08,108.58,340.99,108.27,340.99z"/>
				<path id="XMLID_1646_" class="st60" d="M114.15,345.08c-0.04-0.12-0.07-0.24-0.1-0.36c-0.03-0.12-0.04-0.24-0.05-0.35
					c-0.15,0.23-0.35,0.42-0.59,0.58c-0.25,0.15-0.52,0.23-0.83,0.23c-0.51,0-0.9-0.13-1.17-0.39c-0.28-0.26-0.41-0.62-0.41-1.08
					c0-0.47,0.19-0.84,0.56-1.11c0.37-0.26,0.9-0.4,1.58-0.4l0.85,0l0-0.43c0-0.26-0.08-0.46-0.23-0.6
					c-0.15-0.14-0.37-0.21-0.64-0.21c-0.25,0-0.45,0.06-0.59,0.18s-0.22,0.28-0.22,0.47l-1.06,0l-0.01-0.03
					c-0.02-0.39,0.15-0.73,0.52-1.03s0.84-0.45,1.43-0.45c0.57,0,1.03,0.14,1.38,0.43c0.35,0.29,0.52,0.7,0.52,1.25l0,2.17
					c0,0.2,0.01,0.4,0.04,0.58c0.03,0.19,0.07,0.37,0.13,0.54l-1.12,0L114.15,345.08z M112.8,344.3c0.28,0,0.53-0.07,0.75-0.21
					c0.22-0.14,0.37-0.3,0.44-0.47l0-0.72l-0.88,0c-0.32,0-0.57,0.08-0.75,0.24s-0.27,0.35-0.27,0.56c0,0.19,0.06,0.34,0.18,0.45
					C112.4,344.24,112.57,344.3,112.8,344.3z"/>
				<path id="XMLID_1643_" class="st60" d="M116.04,342.7c0-0.78,0.16-1.41,0.5-1.89c0.34-0.48,0.8-0.72,1.41-0.72
					c0.26,0,0.5,0.05,0.71,0.16c0.21,0.1,0.39,0.26,0.55,0.46l0-2.69l1.1,0l0.01,7.06l-0.92,0l-0.11-0.61
					c-0.15,0.23-0.35,0.4-0.57,0.52s-0.48,0.18-0.77,0.18c-0.6,0-1.07-0.22-1.4-0.65s-0.5-1.01-0.5-1.72l0-0.09L116.04,342.7z
					 M117.13,342.79c0,0.45,0.09,0.81,0.26,1.08c0.17,0.27,0.45,0.4,0.83,0.4c0.23,0,0.43-0.05,0.59-0.15
					c0.16-0.1,0.29-0.24,0.4-0.42l0-2.14c-0.1-0.18-0.24-0.32-0.4-0.42c-0.16-0.1-0.36-0.15-0.58-0.15c-0.37,0-0.65,0.16-0.83,0.47
					c-0.18,0.31-0.26,0.73-0.26,1.23L117.13,342.79L117.13,342.79z"/>
				<path id="XMLID_1642_" class="st60" d="M124.24,343.74c0-0.17-0.07-0.31-0.22-0.42s-0.41-0.21-0.81-0.29
					c-0.58-0.12-1.03-0.3-1.33-0.53c-0.3-0.23-0.45-0.54-0.45-0.93c0-0.41,0.17-0.76,0.52-1.05c0.35-0.29,0.8-0.44,1.37-0.44
					c0.59,0,1.07,0.15,1.42,0.44c0.35,0.29,0.52,0.66,0.51,1.09l-0.01,0.03l-1.05,0c0-0.2-0.08-0.37-0.23-0.52
					c-0.15-0.14-0.36-0.21-0.63-0.21c-0.26,0-0.47,0.06-0.61,0.18c-0.14,0.12-0.21,0.26-0.21,0.44c0,0.17,0.07,0.31,0.2,0.41
					c0.13,0.1,0.4,0.19,0.8,0.27c0.62,0.13,1.07,0.3,1.37,0.53c0.3,0.23,0.45,0.54,0.45,0.94c0,0.44-0.18,0.8-0.54,1.07
					c-0.36,0.28-0.84,0.41-1.44,0.42c-0.64,0-1.14-0.16-1.51-0.49c-0.37-0.32-0.55-0.7-0.52-1.12l0.01-0.03l1.02,0
					c0.01,0.29,0.12,0.49,0.31,0.62c0.19,0.13,0.43,0.19,0.71,0.19c0.29,0,0.5-0.06,0.65-0.17
					C124.17,344.07,124.24,343.92,124.24,343.74z"/>
			</g>
		</g>
		<g id="XMLID_1548_">
			<path d="M103.35,248.61l-1.41,0l-0.02-10.38l1.41,0L103.35,248.61z"/>
			<path d="M106.97,240.89l0.1,1.01c0.25-0.37,0.57-0.65,0.96-0.85c0.39-0.2,0.84-0.3,1.35-0.3c0.51,0,0.95,0.12,1.32,0.35
				c0.37,0.24,0.65,0.59,0.83,1.07c0.24-0.44,0.56-0.79,0.96-1.04c0.4-0.26,0.86-0.39,1.4-0.39c0.78,0,1.41,0.27,1.86,0.81
				c0.46,0.54,0.69,1.35,0.69,2.43l0.01,4.61l-1.4,0l-0.01-4.63c0-0.76-0.13-1.3-0.4-1.61c-0.26-0.32-0.65-0.47-1.17-0.47
				c-0.48,0-0.87,0.17-1.17,0.5c-0.3,0.33-0.47,0.75-0.52,1.26v0.06l0.01,4.9l-1.41,0l-0.01-4.63c0-0.72-0.14-1.25-0.41-1.59
				c-0.27-0.33-0.66-0.5-1.16-0.5c-0.43,0-0.78,0.09-1.05,0.27c-0.28,0.18-0.49,0.42-0.63,0.74l0.01,5.71l-1.4,0l-0.01-7.72
				L106.97,240.89z"/>
			<path d="M125.06,245.01c0,1.11-0.26,2.01-0.79,2.69c-0.53,0.68-1.26,1.03-2.2,1.03c-0.48,0-0.89-0.08-1.25-0.24
				c-0.36-0.16-0.66-0.4-0.92-0.72l0.01,3.77l-1.4,0l-0.02-10.68l1.08,0l0.22,1c0.25-0.37,0.56-0.65,0.94-0.85
				c0.37-0.2,0.81-0.29,1.31-0.29c0.96,0,1.7,0.38,2.23,1.13c0.53,0.76,0.8,1.76,0.8,3V245.01z M123.66,244.86
				c0-0.87-0.17-1.59-0.52-2.15c-0.34-0.56-0.85-0.84-1.52-0.84c-0.4,0-0.75,0.09-1.03,0.28c-0.28,0.18-0.51,0.43-0.69,0.75
				l0.01,3.73c0.18,0.32,0.41,0.57,0.69,0.74c0.28,0.18,0.63,0.27,1.05,0.27c0.67,0,1.17-0.25,1.51-0.73
				c0.34-0.49,0.51-1.12,0.51-1.88V244.86z"/>
			<path d="M126.46,244.65c0-1.14,0.31-2.08,0.92-2.82c0.62-0.74,1.46-1.11,2.52-1.11c1.07,0,1.92,0.37,2.54,1.1
				c0.62,0.74,0.93,1.68,0.93,2.82v0.16c0,1.15-0.31,2.09-0.92,2.83c-0.62,0.73-1.46,1.1-2.52,1.1c-1.07,0-1.91-0.36-2.53-1.1
				c-0.62-0.73-0.93-1.67-0.93-2.82V244.65z M127.87,244.8c0,0.82,0.17,1.49,0.52,2.02c0.35,0.53,0.86,0.8,1.54,0.8
				c0.67,0,1.18-0.27,1.53-0.8c0.35-0.53,0.52-1.21,0.52-2.02v-0.16c0-0.81-0.18-1.48-0.53-2.02c-0.35-0.54-0.86-0.8-1.54-0.8
				c-0.67,0-1.18,0.27-1.52,0.81c-0.34,0.54-0.52,1.21-0.51,2.02V244.8z"/>
			<path d="M138.74,242.08l-0.72-0.04c-0.37,0-0.68,0.09-0.94,0.27c-0.26,0.18-0.45,0.42-0.59,0.74l0.01,5.51l-1.4,0l-0.01-7.72
				l1.26,0l0.14,1.13c0.22-0.4,0.49-0.71,0.81-0.94c0.32-0.22,0.69-0.34,1.11-0.34c0.1,0,0.2,0.01,0.3,0.02
				c0.09,0.02,0.17,0.03,0.24,0.05L138.74,242.08z"/>
			<path d="M142.06,238.97l0,1.86l1.46,0l0,1.04l-1.46,0l0.01,4.69c0,0.36,0.08,0.62,0.23,0.76c0.15,0.15,0.35,0.22,0.6,0.22
				c0.08,0,0.17-0.01,0.27-0.03c0.1-0.02,0.18-0.04,0.26-0.07l0.19,0.96c-0.1,0.09-0.26,0.16-0.46,0.21
				c-0.2,0.06-0.4,0.08-0.61,0.08c-0.57,0-1.03-0.17-1.36-0.51c-0.34-0.34-0.51-0.88-0.51-1.62l-0.01-4.69l-1.23,0l0-1.04l1.23,0
				l0-1.86L142.06,238.97z"/>
		</g>
	</g>
	<g id="XMLID_912_">
		<g id="XMLID_924_">
			<path id="XMLID_925_" class="st61" d="M280.55,497.89c-58.58,0-146.07,0-204.65,0c0,0-2.41-48.15,40.13-51.37
				c0,0,7.05-40.72,54.57-40.93c56.98-0.25,57.69,49.34,57.69,49.34S274.93,450.54,280.55,497.89"/>
		</g>
		<g id="XMLID_921_">
			<g id="XMLID_922_">
				<path id="XMLID_923_" class="st62" d="M280.55,497.89c0,0-0.03-0.12-0.07-0.34c-0.04-0.24-0.09-0.57-0.17-1.02
					c-0.07-0.46-0.16-1.02-0.27-1.67c-0.1-0.67-0.22-1.44-0.43-2.3c-0.19-0.87-0.41-1.82-0.64-2.89c-0.31-1.04-0.64-2.18-1-3.41
					c-0.4-1.22-0.91-2.5-1.42-3.87c-0.31-0.67-0.62-1.36-0.95-2.06c-0.17-0.35-0.33-0.71-0.5-1.07c-0.19-0.35-0.39-0.71-0.59-1.07
					c-0.42-0.72-0.77-1.48-1.26-2.2c-0.47-0.72-0.96-1.47-1.46-2.23c-0.56-0.72-1.12-1.46-1.7-2.21c-0.6-0.74-1.27-1.44-1.92-2.19
					c-2.71-2.9-6.11-5.59-10.13-7.81c-4-2.24-8.62-3.97-13.65-5.08c-2.51-0.56-5.13-0.97-7.82-1.2c-2.69-0.23-5.47-0.33-8.28-0.12
					l-0.2,0.02l-0.01-0.2c-0.11-2.8-0.56-5.67-1.19-8.54c-0.64-2.87-1.51-5.76-2.63-8.61c-2.26-5.68-5.51-11.26-10.02-15.98
					c-2.26-2.36-4.75-4.55-7.53-6.43c-0.68-0.48-1.42-0.89-2.13-1.35l-1.07-0.67l-1.12-0.59c-0.76-0.38-1.5-0.81-2.27-1.17
					c-0.78-0.34-1.57-0.68-2.36-1.02c-0.77-0.37-1.6-0.62-2.41-0.92c-0.82-0.27-1.62-0.61-2.46-0.84c-1.67-0.44-3.34-1-5.06-1.31
					c-0.86-0.17-1.72-0.36-2.58-0.54c-0.87-0.12-1.75-0.25-2.62-0.38c-1.75-0.29-3.52-0.42-5.3-0.56c-3.7-0.27-7.39-0.27-11.03-0.12
					c-0.91,0.07-1.81,0.16-2.71,0.23l-1.36,0.12l-1.34,0.19c-0.89,0.13-1.78,0.27-2.67,0.39c-0.87,0.18-1.76,0.37-2.62,0.54
					c-3.47,0.81-6.87,1.8-10.05,3.22c-3.19,1.39-6.19,3.06-8.97,5.01c-5.55,3.88-10.02,8.86-13.41,14.19
					c-1.7,2.66-3.11,5.44-4.28,8.24c-1.17,2.8-2.11,5.64-2.69,8.47l-0.03,0.15l-0.14,0.01c-5.44,0.4-10.58,1.63-15.11,3.65
					c-4.52,2.02-8.43,4.78-11.46,7.99c-3.06,3.19-5.36,6.68-7.1,10.07c-1.75,3.41-2.94,6.73-3.81,9.77
					c-1.73,6.11-2.24,11.11-2.49,14.48c-0.12,1.69-0.15,3-0.16,3.87c-0.01,0.87-0.01,1.33-0.01,1.33s-0.04-0.45-0.05-1.33
					c-0.02-0.87,0-2.18,0.1-3.88c0.21-3.39,0.68-8.39,2.39-14.54c0.86-3.06,2.04-6.4,3.79-9.83c1.74-3.42,4.05-6.94,7.12-10.17
					c3.05-3.25,6.99-6.04,11.55-8.09c4.56-2.06,9.75-3.31,15.22-3.72l-0.17,0.16c0.59-2.88,1.52-5.73,2.7-8.56
					c1.17-2.82,2.59-5.62,4.3-8.31c3.41-5.37,7.91-10.4,13.5-14.32c2.79-1.96,5.83-3.65,9.04-5.06c3.21-1.44,6.63-2.44,10.12-3.25
					c0.88-0.18,1.76-0.37,2.65-0.55c0.89-0.13,1.79-0.27,2.69-0.4l1.35-0.19l1.36-0.12c0.91-0.07,1.82-0.16,2.73-0.23
					c3.66-0.16,7.37-0.17,11.09,0.11c1.79,0.14,3.57,0.26,5.33,0.56c0.88,0.12,1.76,0.26,2.64,0.38c0.87,0.18,1.73,0.36,2.6,0.54
					c1.74,0.31,3.41,0.87,5.1,1.32c0.84,0.23,1.65,0.57,2.47,0.85c0.82,0.3,1.65,0.56,2.43,0.92c0.79,0.35,1.58,0.69,2.37,1.03
					c0.78,0.36,1.52,0.79,2.29,1.17l1.13,0.6l1.09,0.67c0.72,0.46,1.46,0.87,2.15,1.37c2.8,1.91,5.33,4.11,7.6,6.49
					c4.55,4.78,7.83,10.41,10.09,16.13c1.12,2.87,2,5.78,2.63,8.67c0.63,2.9,1.07,5.77,1.18,8.62l-0.21-0.19
					c2.86-0.2,5.64-0.09,8.34,0.14c2.71,0.24,5.34,0.66,7.87,1.22c5.05,1.13,9.7,2.88,13.73,5.14c4.04,2.24,7.46,4.97,10.18,7.89
					c0.66,0.76,1.33,1.47,1.93,2.21c0.58,0.77,1.15,1.51,1.7,2.24c0.5,0.77,0.98,1.52,1.46,2.25c0.48,0.72,0.84,1.5,1.26,2.22
					c0.2,0.37,0.39,0.72,0.58,1.07c0.17,0.37,0.33,0.72,0.49,1.08c0.32,0.72,0.63,1.41,0.94,2.08c0.51,1.38,1.01,2.67,1.41,3.9
					c0.35,1.23,0.67,2.38,0.97,3.42c0.22,1.07,0.43,2.03,0.62,2.9c0.2,0.87,0.32,1.64,0.4,2.31c0.09,0.67,0.17,1.22,0.24,1.68
					c0.06,0.44,0.11,0.78,0.14,1.02C280.54,497.77,280.55,497.89,280.55,497.89z"/>
			</g>
		</g>
		<g id="XMLID_913_">
			<g id="XMLID_919_">
				<polygon id="XMLID_920_" class="st63" points="168.11,359.28 168.11,359.28 168.1,359.28 168.1,359.28 129.82,393.97 
					152.94,393.97 152.94,443.05 167.23,443.05 168.97,443.05 183.27,443.05 183.27,393.97 206.39,393.97 				"/>
			</g>
			<g id="XMLID_917_">
				<path id="XMLID_918_" class="st61" d="M140.94,426.29c13.45-3.39,22.2,0.42,28.41,9.12c5.33-9.16,17.6-11.67,27.43-7.73
					l6.19,23.43l-37.66,4.93l-31.47-5.78L140.94,426.29z"/>
			</g>
			<g id="XMLID_914_">
				<g id="XMLID_915_">
					<path id="XMLID_916_" class="st62" d="M193.8,426.93c-0.02,0.05-0.74-0.26-2.11-0.62c-1.36-0.37-3.41-0.68-5.93-0.52
						c-1.27,0.07-2.63,0.32-4.07,0.69c-1.42,0.45-2.93,0.97-4.39,1.81c-2.94,1.6-5.77,4.2-7.56,7.67l-0.18,0.36l-0.22-0.35
						c-0.25-0.41-0.52-0.84-0.79-1.28c-1.13-1.68-2.46-3.19-3.95-4.4c-1.5-1.19-3.05-2.23-4.66-2.96c-3.19-1.55-6.4-2.1-9.06-2.19
						c-2.67-0.07-4.83,0.34-6.27,0.75c-1.43,0.43-2.21,0.76-2.22,0.71c-0.01-0.02,0.18-0.1,0.55-0.26c0.37-0.14,0.9-0.42,1.62-0.62
						c1.44-0.47,3.61-0.93,6.33-0.9c2.7,0.05,5.97,0.57,9.22,2.13c1.65,0.72,3.23,1.78,4.77,2.99c1.52,1.23,2.88,2.77,4.04,4.5
						c0.27,0.45,0.55,0.9,0.81,1.32l-0.39,0.01c1.83-3.56,4.75-6.22,7.76-7.83c1.49-0.85,3.04-1.37,4.49-1.81
						c1.47-0.36,2.86-0.6,4.15-0.65c2.56-0.12,4.64,0.24,5.99,0.67c0.69,0.17,1.19,0.43,1.54,0.55
						C193.62,426.84,193.81,426.92,193.8,426.93z"/>
				</g>
			</g>
		</g>
	</g>
	<g id="XMLID_1587_">
		<g>
			<path id="XMLID_1689_" class="st64" d="M576.73,164.67H263.89c-5.39,0-9.77,4.37-9.77,9.77v220.97c0,5.39,4.37,9.77,9.77,9.77
				h120.07l-8.04,35.84h96.27c0,0-11.51-35.84-11.86-35.84h116.4c5.39,0,9.77-4.37,9.77-9.77V174.44
				C586.5,169.04,582.13,164.67,576.73,164.67"/>
			<path id="XMLID_1688_" class="st65" d="M424.81,381.85c4.26,6.08-2.4,12.74-8.49,8.49c-0.2-0.14-0.38-0.32-0.52-0.52
				c-4.24-6.08,2.41-12.73,8.49-8.49C424.49,381.47,424.67,381.65,424.81,381.85"/>
			<rect x="373.19" y="440.16" class="st64" width="101.79" height="3.15"/>
		</g>
		<path id="XMLID_1687_" class="st66" d="M573.05,364.22H267.57c-3.35,0-6.06-2.71-6.06-6.06V181.9c0-3.35,2.72-6.06,6.06-6.06
			h305.48c3.35,0,6.06,2.71,6.06,6.06v176.27C579.11,361.51,576.4,364.22,573.05,364.22"/>
		<rect id="XMLID_1686_" x="261.53" y="189" class="st67" width="317.6" height="174.59"/>
		<path id="XMLID_1685_" class="st68" d="M287.56,183.11c0,1.4-1.14,2.54-2.54,2.54c-1.4,0-2.54-1.14-2.54-2.54
			c0-1.4,1.14-2.54,2.54-2.54C286.42,180.57,287.56,181.71,287.56,183.11"/>
		<path id="XMLID_1684_" class="st68" d="M272.18,183.11c0,1.4-1.14,2.54-2.54,2.54c-1.4,0-2.54-1.14-2.54-2.54
			c0-1.4,1.14-2.54,2.54-2.54C271.05,180.57,272.18,181.71,272.18,183.11"/>
		<path id="XMLID_1683_" class="st68" d="M279.56,183.11c0,1.4-1.14,2.54-2.54,2.54c-1.4,0-2.54-1.14-2.54-2.54
			c0-1.4,1.14-2.54,2.54-2.54C278.43,180.57,279.56,181.71,279.56,183.11"/>
	</g>
	<line class="st0" x1="55" y1="500" x2="655" y2="500"/>
	<g>
		<path class="st69" d="M595.82,282.68H438.49c-5.36,0-9.7-4.34-9.7-9.7V140.04c0-5.36,4.34-9.7,9.7-9.7h157.33
			c5.36,0,9.7,4.34,9.7,9.7v132.94C605.52,278.33,601.18,282.68,595.82,282.68z"/>
		<path class="st70" d="M512.14,277.21h-67.79c-5.36,0-9.7-4.34-9.7-9.7V146.07c0-5.36,4.34-9.7,9.7-9.7h67.79
			c5.36,0,9.7,4.34,9.7,9.7v121.44C521.84,272.87,517.5,277.21,512.14,277.21z"/>
		<path class="st71" d="M499.71,153.86h-56.75c-1.53,0-2.77-1.24-2.77-2.77v-1.73c0-1.53,1.24-2.77,2.77-2.77h56.75
			c1.53,0,2.77,1.24,2.77,2.77v1.73C502.48,152.62,501.24,153.86,499.71,153.86z"/>
		<path class="st71" d="M512.69,170.18h-69.73c-1.53,0-2.77-1.24-2.77-2.77v-1.73c0-1.53,1.24-2.77,2.77-2.77h69.73
			c1.53,0,2.77,1.24,2.77,2.77v1.73C515.45,168.94,514.21,170.18,512.69,170.18z"/>
		<path class="st71" d="M490.99,186.5h-48.03c-1.53,0-2.77-1.24-2.77-2.77V182c0-1.53,1.24-2.77,2.77-2.77h48.03
			c1.53,0,2.77,1.24,2.77,2.77v1.73C493.75,185.26,492.51,186.5,490.99,186.5z"/>
		<path class="st71" d="M490.99,202.82h-48.03c-1.53,0-2.77-1.24-2.77-2.77v-1.73c0-1.53,1.24-2.77,2.77-2.77h48.03
			c1.53,0,2.77,1.24,2.77,2.77v1.73C493.75,201.58,492.51,202.82,490.99,202.82z"/>
		<path class="st71" d="M495.17,219.14h-52.21c-1.53,0-2.77-1.24-2.77-2.77v-1.73c0-1.53,1.24-2.77,2.77-2.77h52.21
			c1.53,0,2.77,1.24,2.77,2.77v1.73C497.94,217.9,496.7,219.14,495.17,219.14z"/>
		<path class="st20" d="M581.81,160.08h-51.4c-1.53,0-2.77-1.24-2.77-2.77v-1.73c0-1.53,1.24-2.77,2.77-2.77h51.4
			c1.53,0,2.77,1.24,2.77,2.77v1.73C584.58,158.85,583.34,160.08,581.81,160.08z"/>
		<path class="st63" d="M593.67,176.41h-63.26c-1.53,0-2.77-1.24-2.77-2.77v-1.73c0-1.53,1.24-2.77,2.77-2.77h63.26
			c1.53,0,2.77,1.24,2.77,2.77v1.73C596.44,175.17,595.2,176.41,593.67,176.41z"/>
		<path class="st52" d="M573.84,192.73h-43.42c-1.53,0-2.77-1.24-2.77-2.77v-1.73c0-1.53,1.24-2.77,2.77-2.77h43.42
			c1.53,0,2.77,1.24,2.77,2.77v1.73C576.6,191.49,575.36,192.73,573.84,192.73z"/>
		<path class="st64" d="M573.84,209.05h-43.42c-1.53,0-2.77-1.24-2.77-2.77v-1.73c0-1.53,1.24-2.77,2.77-2.77h43.42
			c1.53,0,2.77,1.24,2.77,2.77v1.73C576.6,207.81,575.36,209.05,573.84,209.05z"/>
		<path class="st6" d="M577.66,225.37h-47.25c-1.53,0-2.77-1.24-2.77-2.77v-1.73c0-1.53,1.24-2.77,2.77-2.77h47.25
			c1.53,0,2.77,1.24,2.77,2.77v1.73C580.43,224.13,579.19,225.37,577.66,225.37z"/>
		<path class="st71" d="M472.48,235.46h-29.52c-1.53,0-2.77-1.24-2.77-2.77v-1.73c0-1.53,1.24-2.77,2.77-2.77h29.52
			c1.53,0,2.77,1.24,2.77,2.77v1.73C475.24,234.22,474.01,235.46,472.48,235.46z"/>
		<path class="st71" d="M479.34,251.78h-36.38c-1.53,0-2.77-1.24-2.77-2.77v-1.73c0-1.53,1.24-2.77,2.77-2.77h36.38
			c1.53,0,2.77,1.24,2.77,2.77v1.73C482.11,250.54,480.87,251.78,479.34,251.78z"/>
		<path class="st71" d="M479.34,268.1h-36.38c-1.53,0-2.77-1.24-2.77-2.77v-1.73c0-1.53,1.24-2.77,2.77-2.77h36.38
			c1.53,0,2.77,1.24,2.77,2.77v1.73C482.11,266.87,480.87,268.1,479.34,268.1z"/>
	</g>
	<g>
		<path class="st72" d="M443.48,339.83h-143.6c-6.49,0-11.75-5.26-11.75-11.75v-21.3c0-6.49,5.26-11.75,11.75-11.75h143.6
			c6.49,0,11.75,5.26,11.75,11.75v21.3C455.23,334.57,449.97,339.83,443.48,339.83z"/>
		<path class="st73" d="M376.06,313.5h-70.21c-1.53,0-2.77-1.24-2.77-2.77v-4c0-1.53,1.24-2.77,2.77-2.77h70.21
			c1.53,0,2.77,1.24,2.77,2.77v4C378.82,312.26,377.58,313.5,376.06,313.5z"/>
		<path class="st73" d="M346.29,330.9h-40.45c-1.53,0-2.77-1.24-2.77-2.77v-4c0-1.53,1.24-2.77,2.77-2.77h40.45
			c1.53,0,2.77,1.24,2.77,2.77v4C349.06,329.67,347.82,330.9,346.29,330.9z"/>
		<polyline class="st74" points="409.77,321.89 420.07,327.7 435.31,311.49 		"/>
	</g>
	<g>
		<g>
			<g>
				<g>
					<path class="st75" d="M485.75,512.56l23.73-18.64c1.25-0.99,0.58-3.05-1-3.05H371.54l-18.39,21.68H485.75z"/>
					<polygon class="st76" points="480.22,485.34 480.22,509.56 502.9,493.66 502.13,476.85 					"/>
					<path class="st75" d="M485.75,483.49l19.41-7.89c1.12-0.46,0.81-2.17-0.4-2.17l-127.79-0.82l-23.83,9.75L485.75,483.49z"/>
					<rect x="353.15" y="482.35" class="st77" width="132.6" height="30.21"/>
					<polygon class="st78" points="485.75,483.49 502.21,476.85 502.27,478.05 485.75,488.51 					"/>
				</g>
				<rect x="360.53" y="488.51" class="st79" width="88.96" height="18.62"/>
				<g>
					<ellipse class="st80" cx="466.5" cy="497.65" rx="6.69" ry="6.88"/>
					<path class="st81" d="M466.5,504.85c-3.86,0-7.01-3.23-7.01-7.2c0-3.97,3.14-7.2,7.01-7.2c3.86,0,7.01,3.23,7.01,7.2
						C473.51,501.62,470.37,504.85,466.5,504.85z M466.5,491.1c-3.52,0-6.38,2.94-6.38,6.55c0,3.61,2.86,6.55,6.38,6.55
						s6.38-2.94,6.38-6.55C472.88,494.04,470.02,491.1,466.5,491.1z"/>
				</g>
			</g>
			<rect x="356.63" y="448.41" class="st82" width="131.93" height="30.71"/>
			<rect x="353.49" y="426.78" class="st83" width="131.93" height="21.69"/>
			<g>
				<ellipse class="st84" cx="468.59" cy="464.8" rx="6.47" ry="6.65"/>
				<path class="st85" d="M468.59,471.77c-3.74,0-6.79-3.13-6.79-6.97c0-3.84,3.04-6.97,6.79-6.97s6.79,3.13,6.79,6.97
					C475.38,468.64,472.33,471.77,468.59,471.77z M468.59,458.47c-3.4,0-6.16,2.84-6.16,6.33c0,3.49,2.76,6.33,6.16,6.33
					c3.4,0,6.16-2.84,6.16-6.33C474.75,461.31,471.99,458.47,468.59,458.47z"/>
			</g>
			<path class="st86" d="M487.37,433.27c-12.98-13.59-14.16-32.29-14.16-32.29s-2.21,22.32,5.32,51.23c0.3,1.16,4.36,4.61,9.94,8.91
				C488.35,451.83,487.86,442.55,487.37,433.27z"/>
			<path class="st79" d="M476.75,392.95c0,0,2.86,45.77,49.35,46.12l1.06,39.26c0,0-44.07-30.25-45.09-34.16
				C474.53,415.27,476.75,392.95,476.75,392.95z"/>
			<path class="st79" d="M365.09,430.49v3.68c1.88,0.42,3.26,1.73,3.26,3.28c0,1.55-1.37,2.87-3.26,3.28v4.03h26.46v-14.27H365.09z"
				/>
			<rect x="367.35" y="456.17" class="st79" width="76.13" height="15.3"/>
			<g class="st87">
				<rect x="373.27" y="433.75" class="st88" width="1.79" height="9.17"/>
				<rect x="377.43" y="433.75" class="st88" width="1.79" height="9.17"/>
				<rect x="382.76" y="433.75" class="st88" width="1.79" height="9.17"/>
			</g>
			<rect x="470.32" y="431.89" class="st89" width="2.87" height="12.88"/>
		</g>
	</g>
	<g>
		<g>
			<path class="st90" d="M129.04,183.64c0,0,0.69-2.03,2.14-5.6"/>
			<path class="st91" d="M136.15,166.82c23.55-49.38,109-184.52,306.22-86.23"/>
			<path class="st90" d="M447.84,83.36c1.76,0.91,3.54,1.83,5.32,2.78"/>
			<g>
				<polygon class="st92" points="442.94,88.48 452.1,85.63 449.24,76.47 454.34,79.15 457.19,88.31 448.03,91.15 				"/>
			</g>
		</g>
	</g>
</g>
</svg>
